<svg xmlns="http://www.w3.org/2000/svg" viewBox="0 0 140 140" fill="none">
  <style>
    @keyframes buttonError {
      0%, 100% { opacity: 1; }
      50% { opacity: 0.3; }
    }
    .button { animation: buttonError 1.5s ease-in-out infinite; }
  </style>
  <!-- Device outline -->
  <rect x="30" y="40" width="80" height="50" rx="5" stroke="#ef4444" stroke-width="3" fill="none"/>
  <!-- Buttons (not working) -->
  <!-- Button 1 -->
  <circle class="button" cx="50" cy="60" r="8" stroke="#ef4444" stroke-width="2.5" fill="none" stroke-dasharray="2,2"/>
  <line x1="47" y1="57" x2="53" y2="63" stroke="#ef4444" stroke-width="2" stroke-linecap="round"/>
  <line x1="53" y1="57" x2="47" y2="63" stroke="#ef4444" stroke-width="2" stroke-linecap="round"/>
  
  <!-- Button 2 -->
  <circle class="button" cx="70" cy="60" r="8" stroke="#ef4444" stroke-width="2.5" fill="none" stroke-dasharray="2,2"/>
  <line x1="67" y1="57" x2="73" y2="63" stroke="#ef4444" stroke-width="2" stroke-linecap="round"/>
  <line x1="73" y1="57" x2="67" y2="63" stroke="#ef4444" stroke-width="2" stroke-linecap="round"/>
  
  <!-- Button 3 -->
  <circle class="button" cx="90" cy="60" r="8" stroke="#ef4444" stroke-width="2.5" fill="none" stroke-dasharray="2,2"/>
  <line x1="87" y1="57" x2="93" y2="63" stroke="#ef4444" stroke-width="2" stroke-linecap="round"/>
  <line x1="93" y1="57" x2="87" y2="63" stroke="#ef4444" stroke-width="2" stroke-linecap="round"/>
  
  <!-- Button 4 (bottom row) -->
  <circle class="button" cx="60" cy="75" r="8" stroke="#ef4444" stroke-width="2.5" fill="none" stroke-dasharray="2,2"/>
  <line x1="57" y1="72" x2="63" y2="78" stroke="#ef4444" stroke-width="2" stroke-linecap="round"/>
  <line x1="63" y1="72" x2="57" y2="78" stroke="#ef4444" stroke-width="2" stroke-linecap="round"/>
  
  <!-- Button 5 -->
  <circle class="button" cx="80" cy="75" r="8" stroke="#ef4444" stroke-width="2.5" fill="none" stroke-dasharray="2,2"/>
  <line x1="77" y1="72" x2="83" y2="78" stroke="#ef4444" stroke-width="2" stroke-linecap="round"/>
  <line x1="83" y1="72" x2="77" y2="78" stroke="#ef4444" stroke-width="2" stroke-linecap="round"/>
</svg>




